<svg width="15" height="16" viewBox="0 0 15 16" fill="none" xmlns="http://www.w3.org/2000/svg">
<path d="M0.461914 7.70898C0.461914 7.94824 0.571289 8.13965 0.755859 8.23535V9.08301C0.414062 9.26074 0.229492 9.64355 0.263672 10.1152C0.373047 10.9492 0.981445 12.3574 1.70605 13.499C2.71094 15.1602 3.3125 15.748 3.96875 15.748C4.85059 15.748 5.26758 14.9277 4.77539 14.0596L2.23242 9.55469C2.04102 9.21973 1.76758 9.03516 1.42578 8.99414V8.1875C1.5625 8.0918 1.64453 7.9209 1.64453 7.70898C1.67188 4.07227 3.87305 1.74121 7.40723 1.74121C10.9414 1.74121 13.1357 4.07227 13.1631 7.70898C13.1631 7.9209 13.2451 8.0918 13.3887 8.1875V8.99414C13.0469 9.03516 12.7666 9.21973 12.582 9.55469L10.0322 14.0596C9.54004 14.9277 9.96387 15.748 10.8389 15.748C11.4951 15.748 12.0967 15.1602 13.1016 13.499C13.8262 12.3574 14.4346 10.9492 14.5439 10.1152C14.5781 9.64355 14.3936 9.26074 14.0518 9.08301V8.23535C14.2363 8.13965 14.3457 7.94824 14.3457 7.70898C14.3457 3.45703 11.7002 0.551758 7.40723 0.551758C3.10742 0.551758 0.461914 3.45703 0.461914 7.70898ZM3.40137 4.22266C4.50879 3.61426 5.82812 3.31348 7.40723 3.32031C8.97949 3.31348 10.2988 3.61426 11.4062 4.22266C10.5244 3.04688 9.21875 2.43848 7.40723 2.43848C5.58887 2.43848 4.2832 3.04688 3.40137 4.22266ZM8.72656 14.3467C9.00684 14.5039 9.2666 14.4355 9.41699 14.1689L12.2334 9.19922C12.3838 8.94629 12.3154 8.67969 12.0352 8.52246C11.5703 8.25586 11.0166 8.44043 10.7158 8.95996L8.43262 12.9932C8.13867 13.5059 8.26855 14.0869 8.72656 14.3467ZM6.08105 14.3467C6.53906 14.0869 6.66895 13.5059 6.375 12.9932L4.0918 8.95996C3.79785 8.44043 3.24414 8.25586 2.7793 8.52246C2.49219 8.67969 2.43066 8.94629 2.57422 9.19922L5.39062 14.1689C5.54102 14.4355 5.80078 14.5039 6.08105 14.3467Z" fill="white" fill-opacity="0.6"/>
</svg>
