<svg width="11" height="16" viewBox="0 0 11 16" fill="none" xmlns="http://www.w3.org/2000/svg">
<path d="M5.5 9.85547C6.8877 9.85547 7.89941 8.82324 7.89941 7.30566V2.70508C7.89941 1.19434 6.8877 0.155273 5.5 0.155273C4.1123 0.155273 3.10059 1.19434 3.10059 2.70508V7.30566C3.10059 8.82324 4.1123 9.85547 5.5 9.85547ZM0.311523 7.46289C0.311523 10.2725 2.17773 12.2002 4.87793 12.46V13.8613H2.3623C2.01367 13.8613 1.71973 14.1484 1.71973 14.5039C1.71973 14.8525 2.01367 15.1396 2.3623 15.1396H8.6377C8.99316 15.1396 9.28711 14.8525 9.28711 14.5039C9.28711 14.1484 8.99316 13.8613 8.6377 13.8613H6.12891V12.46C8.82227 12.2002 10.6953 10.2725 10.6953 7.46289V6.10938C10.6953 5.75391 10.4082 5.47363 10.0527 5.47363C9.69727 5.47363 9.40332 5.75391 9.40332 6.10938V7.41504C9.40332 9.73926 7.83105 11.2773 5.5 11.2773C3.16895 11.2773 1.59668 9.73926 1.59668 7.41504V6.10938C1.59668 5.75391 1.30957 5.47363 0.954102 5.47363C0.598633 5.47363 0.311523 5.75391 0.311523 6.10938V7.46289Z" fill="white" fill-opacity="0.6"/>
</svg>
