<svg width="15" height="15" viewBox="0 0 15 15" fill="none" xmlns="http://www.w3.org/2000/svg">
<path d="M3.0061 14.1602C3.8811 14.1602 5.68579 13.2852 7.01196 12.335C11.5374 12.4443 14.928 9.83985 14.928 6.42872C14.928 3.14747 11.6399 0.508797 7.54517 0.508797C3.4436 0.508797 0.155518 3.14747 0.155518 6.42872C0.155518 8.5547 1.5022 10.4414 3.54614 11.3984C3.2522 11.9522 2.72583 12.6973 2.43872 13.0801C2.07642 13.5586 2.302 14.1602 3.0061 14.1602ZM3.71704 13.0049C3.65552 13.0322 3.62817 12.9912 3.66919 12.9365C4.02466 12.5059 4.53052 11.8428 4.7561 11.419C4.94067 11.0772 4.88599 10.7764 4.47583 10.5781C2.46606 9.64161 1.30396 8.14454 1.30396 6.42872C1.30396 3.79688 4.06567 1.6504 7.54517 1.6504C11.0178 1.6504 13.7795 3.79688 13.7795 6.42872C13.7795 9.06739 11.0178 11.2139 7.54517 11.2139C7.41528 11.2139 7.22388 11.207 6.97778 11.2002C6.69751 11.2002 6.49243 11.2822 6.24634 11.4805C5.45337 12.0547 4.2981 12.7725 3.71704 13.0049Z" fill="white" fill-opacity="0.6"/>
</svg>
