<svg width="18" height="17" viewBox="0 0 18 17" fill="none" xmlns="http://www.w3.org/2000/svg">
<path d="M7.96899 16.7109H9.54712C10.1487 16.7109 10.6096 16.3438 10.7502 15.7656L11.0862 14.3047L11.3362 14.2188L12.6096 15C13.1174 15.3203 13.7034 15.2422 14.1331 14.8125L15.2268 13.7266C15.6565 13.2969 15.7346 12.7031 15.4143 12.2031L14.6174 10.9375L14.7112 10.7031L16.1721 10.3594C16.7424 10.2188 17.1174 9.75001 17.1174 9.15626V7.60938C17.1174 7.01563 16.7502 6.54688 16.1721 6.40626L14.7268 6.0547L14.6252 5.8047L15.4221 4.53907C15.7424 4.03907 15.6643 3.45313 15.2346 3.01563L14.1409 1.92188C13.719 1.50001 13.1331 1.42188 12.6252 1.73438L11.3518 2.51563L11.0862 2.41407L10.7502 0.953133C10.6096 0.375008 10.1487 0.00782013 9.54712 0.00782013H7.96899C7.36743 0.00782013 6.90649 0.375008 6.76587 0.953133L6.42212 2.41407L6.15649 2.51563L4.89087 1.73438C4.38306 1.42188 3.78931 1.50001 3.36743 1.92188L2.28149 3.01563C1.85181 3.45313 1.76587 4.03907 2.09399 4.53907L2.88306 5.8047L2.78931 6.0547L1.34399 6.40626C0.765869 6.54688 0.398682 7.01563 0.398682 7.60938V9.15626C0.398682 9.75001 0.773682 10.2188 1.34399 10.3594L2.80493 10.7031L2.89087 10.9375L2.10181 12.2031C1.77368 12.7031 1.85962 13.2969 2.28931 13.7266L3.37524 14.8125C3.80493 15.2422 4.39868 15.3203 4.90649 15L6.17212 14.2188L6.42212 14.3047L6.76587 15.7656C6.90649 16.3438 7.36743 16.7109 7.96899 16.7109ZM8.09399 15.4922C7.96118 15.4922 7.89087 15.4375 7.86743 15.3125L7.39868 13.375C6.92212 13.2578 6.47681 13.0703 6.14087 12.8594L4.43774 13.9063C4.34399 13.9766 4.24243 13.9609 4.14868 13.8672L3.22681 12.9453C3.14087 12.8594 3.13306 12.7656 3.19556 12.6563L4.24243 10.9688C4.06274 10.6406 3.85962 10.1953 3.73462 9.71876L1.79712 9.25782C1.67212 9.23438 1.61743 9.16407 1.61743 9.03126V7.72657C1.61743 7.58595 1.66431 7.52345 1.79712 7.50001L3.72681 7.03126C3.85181 6.52345 4.08618 6.06251 4.22681 5.77345L3.18774 4.08595C3.11743 3.96876 3.12524 3.87501 3.21118 3.78126L4.14087 2.87501C4.23462 2.78126 4.32056 2.76563 4.43774 2.83595L6.12524 3.85938C6.46118 3.67188 6.93774 3.47657 7.40649 3.34376L7.86743 1.40626C7.89087 1.28126 7.96118 1.22657 8.09399 1.22657H9.42212C9.55493 1.22657 9.62524 1.28126 9.64087 1.40626L10.1174 3.35938C10.6018 3.48438 11.0237 3.6797 11.3752 3.8672L13.0706 2.83595C13.1956 2.76563 13.2737 2.78126 13.3752 2.87501L14.2971 3.78126C14.3909 3.87501 14.3909 3.96876 14.3206 4.08595L13.2815 5.77345C13.4299 6.06251 13.6565 6.52345 13.7815 7.03126L15.719 7.50001C15.844 7.52345 15.8987 7.58595 15.8987 7.72657V9.03126C15.8987 9.16407 15.8362 9.23438 15.719 9.25782L13.7737 9.71876C13.6487 10.1953 13.4534 10.6406 13.2659 10.9688L14.3127 12.6563C14.3752 12.7656 14.3752 12.8594 14.2815 12.9453L13.3674 13.8672C13.2659 13.9609 13.1721 13.9766 13.0706 13.9063L11.3674 12.8594C11.0315 13.0703 10.594 13.2578 10.1174 13.375L9.64087 15.3125C9.62524 15.4375 9.55493 15.4922 9.42212 15.4922H8.09399ZM8.75806 11.3438C10.3909 11.3438 11.7346 10 11.7346 8.35938C11.7346 6.73438 10.3909 5.39063 8.75806 5.39063C7.12524 5.39063 5.77368 6.73438 5.77368 8.35938C5.77368 9.9922 7.11743 11.3438 8.75806 11.3438ZM8.75806 10.1328C7.78931 10.1328 6.99243 9.33595 6.99243 8.35938C6.99243 7.39845 7.78931 6.60157 8.75806 6.60157C9.71118 6.60157 10.5081 7.39845 10.5081 8.35938C10.5081 9.32813 9.71118 10.1328 8.75806 10.1328Z" fill="#EBEBF5" fill-opacity="0.6"/>
</svg>
