<svg width="13" height="15" viewBox="0 0 13 15" fill="none" xmlns="http://www.w3.org/2000/svg">
<path d="M0.680176 10.8721C0.680176 11.3643 1.06299 11.6924 1.69189 11.6924H4.39893C4.45361 12.9365 5.43799 14.044 6.83936 14.044C8.24072 14.044 9.2251 12.9434 9.28662 11.6924H11.9868C12.6157 11.6924 12.9985 11.3643 12.9985 10.8721C12.9985 10.209 12.3491 9.62794 11.7817 9.05372C11.3442 8.60938 11.2349 7.7002 11.1733 6.90723C11.1118 4.39161 10.4351 2.75098 8.72607 2.12891C8.50049 1.28126 7.79639 0.618172 6.83936 0.618172C5.88232 0.618172 5.18506 1.28126 4.95264 2.12891C3.24365 2.75098 2.56689 4.39161 2.50537 6.90723C2.45068 7.7002 2.33447 8.60938 1.89697 9.05372C1.32959 9.62794 0.680176 10.209 0.680176 10.8721ZM2.03369 10.6533V10.5713C2.17041 10.3867 2.55322 10.0176 2.88135 9.64161C3.33936 9.12891 3.55811 8.26075 3.61279 7.00977C3.67432 4.25489 4.50146 3.35938 5.58838 3.06544C5.75244 3.02442 5.84131 2.94923 5.84814 2.77833C5.87549 2.10841 6.25146 1.6504 6.83936 1.6504C7.42725 1.6504 7.81006 2.10841 7.83057 2.77833C7.84424 2.94923 7.93311 3.02442 8.09033 3.06544C9.17725 3.35938 10.0044 4.25489 10.0659 7.00977C10.1274 8.26075 10.3394 9.12891 10.7974 9.64161C11.1323 10.0176 11.5083 10.3867 11.6382 10.5713V10.6533H2.03369ZM5.479 11.6924H8.20654C8.15869 12.5469 7.60498 13.0938 6.83936 13.0938C6.07373 13.0938 5.52686 12.5469 5.479 11.6924Z" fill="white" fill-opacity="0.6"/>
</svg>
