<svg width="16" height="13" viewBox="0 0 16 13" fill="none" xmlns="http://www.w3.org/2000/svg">
<path d="M2.71216 12.3193H13.8616C15.2288 12.3193 15.9192 11.6289 15.9192 10.2822V2.39356C15.9192 1.04688 15.2288 0.356453 13.8616 0.356453H2.71216C1.34497 0.356453 0.647705 1.04005 0.647705 2.39356V10.2822C0.647705 11.6357 1.34497 12.3193 2.71216 12.3193ZM2.74634 11.1982C2.11743 11.1982 1.7688 10.8633 1.7688 10.207V2.46192C1.7688 1.80567 2.11743 1.47071 2.74634 1.47071H13.8274C14.4495 1.47071 14.8049 1.80567 14.8049 2.46192V10.207C14.8049 10.8633 14.4495 11.1982 13.8274 11.1982H2.74634ZM11.6877 6.22852C12.5354 6.22852 13.2327 5.53809 13.2327 4.67677C13.2327 3.82227 12.5354 3.12501 11.6877 3.12501C10.8264 3.12501 10.136 3.82227 10.136 4.67677C10.136 5.53809 10.8264 6.22852 11.6877 6.22852ZM3.79224 4.34864H7.88013C8.13989 4.34864 8.33813 4.13673 8.33813 3.8838C8.33813 3.63087 8.13989 3.42579 7.88013 3.42579H3.79224C3.53247 3.42579 3.33423 3.63087 3.33423 3.8838C3.33423 4.13673 3.53247 4.34864 3.79224 4.34864ZM3.79224 6.06446H6.77271C7.03247 6.06446 7.23755 5.86622 7.23755 5.60645C7.23755 5.35352 7.03247 5.14845 6.77271 5.14845H3.79224C3.53247 5.14845 3.33423 5.35352 3.33423 5.60645C3.33423 5.86622 3.53247 6.06446 3.79224 6.06446Z" fill="white" fill-opacity="0.6"/>
</svg>
