<svg width="19" height="16" viewBox="0 0 19 16" fill="none" xmlns="http://www.w3.org/2000/svg">
<path d="M17.4229 3.35742L11.0996 0.46582C10.4365 0.165039 9.88965 0.0283203 9.35645 0.0351562C8.81641 0.0283203 8.27637 0.165039 7.60645 0.46582L1.2832 3.35742C0.859375 3.54883 0.647461 3.89746 0.647461 4.24609C0.647461 4.59473 0.859375 4.92969 1.2832 5.12109L3.90137 6.31055L8.02344 4.38281C7.98926 4.33496 7.97559 4.28711 7.97559 4.24609C7.97559 3.81543 8.67285 3.50098 9.37695 3.50098C10.0879 3.50098 10.7715 3.81543 10.7715 4.24609C10.7715 4.68359 10.0879 5.00488 9.37695 5.00488C9.1582 5.00488 8.93945 4.97754 8.74805 4.91602L4.83105 6.74805L7.60645 8.01953C8.27637 8.33398 8.81641 8.46387 9.35645 8.45703C9.88965 8.46387 10.4365 8.32715 11.0996 8.01953L17.4229 5.12109C17.8535 4.92969 18.0586 4.59473 18.0586 4.24609C18.0586 3.89746 17.8535 3.54883 17.4229 3.35742ZM4.80371 7.73242V11.6221C5.9043 12.2852 7.46973 12.6885 9.35645 12.6885C13.1641 12.6885 15.666 11.0479 15.666 9.08594V6.91895L11.4756 8.83984C10.7168 9.18848 10.0195 9.36621 9.35645 9.35938C8.69336 9.36621 7.99609 9.18848 7.23047 8.83984L4.80371 7.73242ZM3.04688 6.92578V9.08594C3.04688 9.65332 3.36133 10.3438 3.92871 10.9248V7.3291L3.04688 6.92578ZM3.40234 13.1602V14.8555C3.40234 15.375 3.74414 15.7168 4.26367 15.7168H4.46875C4.98828 15.7168 5.33008 15.375 5.33008 14.8555V13.1602C5.33008 12.7637 5.13184 12.4697 4.80371 12.3604V11.6221C4.46875 11.417 4.1748 11.1846 3.92871 10.9248V12.3535C3.60059 12.4697 3.40234 12.7637 3.40234 13.1602Z" fill="white" fill-opacity="0.6"/>
</svg>
