<svg width="15" height="16" viewBox="0 0 15 16" fill="none" xmlns="http://www.w3.org/2000/svg">
<path d="M7.44263 15.29C11.4075 15.29 14.6614 12.0293 14.6614 8.06445C14.6614 4.10645 11.4006 0.845703 7.44263 0.845703C3.47778 0.845703 0.223877 4.10645 0.223877 8.06445C0.223877 12.0293 3.48462 15.29 7.44263 15.29ZM4.76294 11.4893C4.20923 11.7285 3.7854 11.3047 4.02466 10.751L5.74048 6.91602C5.86353 6.64258 6.04126 6.47168 6.30103 6.3623L10.1155 4.64648C10.6965 4.39355 11.1067 4.81738 10.8674 5.38477L9.15161 9.21289C9.0354 9.47266 8.85767 9.65039 8.59106 9.7666L4.76294 11.4893ZM7.44946 9.02832C7.97583 9.02832 8.39966 8.60449 8.39966 8.07812C8.39966 7.55176 7.97583 7.12109 7.44946 7.12109C6.9231 7.12109 6.49243 7.55176 6.49243 8.07812C6.49243 8.60449 6.9231 9.02832 7.44946 9.02832Z" fill="white"/>
</svg>
