<svg width="20" height="13" viewBox="0 0 20 13" fill="none" xmlns="http://www.w3.org/2000/svg"><path d="M3.13599 12.2305C4.04517 12.2305 4.66724 11.8955 5.22095 11.2256L6.38306 9.83105C6.55396 9.63281 6.73853 9.53711 6.93677 9.53711H13.1165C13.3147 9.53711 13.4993 9.63281 13.6702 9.83105L14.8323 11.2256C15.386 11.8955 16.0081 12.2305 16.9172 12.2305C18.4006 12.2305 19.4055 11.2461 19.4055 9.71484C19.4055 9.05859 19.2551 8.30664 19.0022 7.46582C18.6057 6.13965 17.9153 4.33496 17.2522 2.94043C16.6985 1.77148 16.4045 1.22461 15.0237 0.910156C13.7932 0.629883 12.0979 0.445312 10.0266 0.445312C7.95532 0.445312 6.26001 0.629883 5.03638 0.910156C3.64868 1.22461 3.35474 1.77148 2.80103 2.94043C2.13794 4.33496 1.44751 6.13965 1.05103 7.46582C0.798096 8.30664 0.647705 9.05859 0.647705 9.71484C0.647705 11.2461 1.65259 12.2305 3.13599 12.2305ZM4.77661 5.05273C4.77661 4.71777 4.98169 4.50586 5.33032 4.50586H6.47192V3.40527C6.47192 3.06348 6.67017 2.85156 7.00513 2.85156C7.32642 2.85156 7.53149 3.06348 7.53149 3.40527V4.50586H8.60474C8.97388 4.50586 9.19263 4.71777 9.19263 5.05273C9.19263 5.39453 8.97388 5.60645 8.60474 5.60645H7.53149V6.71387C7.53149 7.05566 7.32642 7.26758 7.00513 7.26758C6.67017 7.26758 6.47192 7.05566 6.47192 6.71387V5.60645H5.33032C4.98169 5.60645 4.77661 5.39453 4.77661 5.05273ZM13.0549 4.04102C13.0549 3.50781 13.4651 3.09082 13.9915 3.09082C14.5247 3.09082 14.928 3.50781 14.928 4.04102C14.928 4.56738 14.5247 4.9707 13.9915 4.9707C13.4651 4.9707 13.0549 4.56738 13.0549 4.04102ZM11.1477 5.96191C11.1477 5.42871 11.5579 5.01855 12.0842 5.01855C12.6106 5.01855 13.0208 5.42871 13.0208 5.96191C13.0208 6.49512 12.6106 6.89844 12.0842 6.89844C11.5579 6.89844 11.1477 6.49512 11.1477 5.96191Z" fill="white" fill-opacity="0.6"/></svg>
