<svg width="9" height="15" viewBox="0 0 9 15" fill="none" xmlns="http://www.w3.org/2000/svg">
<path d="M8.5979 3.92676V1.49316C8.5979 1.1377 8.31079 0.905273 7.96216 0.980469L4.63306 1.70508C4.20923 1.79395 3.97681 2.02637 3.97681 2.40234L3.99048 9.58691C4.01782 9.8877 3.87427 10.0928 3.60767 10.1406L2.57544 10.3594C1.26978 10.6328 0.647705 11.2959 0.647705 12.2939C0.647705 13.2988 1.42017 14.0029 2.51392 14.0029C3.49829 14.0029 4.91333 13.2715 4.91333 11.3984V5.48535C4.91333 5.15039 4.96802 5.08887 5.26196 5.02051L8.22876 4.37109C8.45435 4.32324 8.5979 4.15234 8.5979 3.92676Z" fill="white" fill-opacity="0.6"/>
</svg>
