<svg width="13" height="16" viewBox="0 0 13 16" fill="none" xmlns="http://www.w3.org/2000/svg">
<path d="M3.18384 1.63867H9.49341C9.45923 1.07812 9.13794 0.78418 8.52954 0.78418H4.15454C3.54614 0.78418 3.22485 1.07812 3.18384 1.63867ZM2.06274 3.45703H10.6145C10.5188 2.8623 10.2317 2.52734 9.5686 2.52734H3.11548C2.45239 2.52734 2.15845 2.8623 2.06274 3.45703ZM2.71216 15.8916H10.1702C11.3596 15.8916 12.05 15.208 12.05 13.8613V6.5332C12.05 5.17969 11.3528 4.49609 9.9856 4.49609H2.71216C1.34497 4.49609 0.647705 5.17969 0.647705 6.5332V13.8613C0.647705 15.208 1.34497 15.8916 2.71216 15.8916ZM4.27759 11.9199C3.01978 11.9199 2.09692 12.6514 1.7688 13.4717V6.60156C1.7688 5.94531 2.11743 5.61035 2.74634 5.61035H9.95142C10.5735 5.61035 10.929 5.94531 10.929 6.60156V13.0889C10.4436 12.4463 9.56177 11.9336 8.39966 11.9336C6.54712 11.9336 5.38501 13.2598 5.38501 14.2988C5.38501 14.5107 5.43286 14.668 5.50122 14.7773H4.69458C4.65356 14.627 4.63306 14.4629 4.63306 14.2988C4.63306 13.5264 5.0022 12.8018 5.6106 12.2412C5.25513 12.0293 4.81763 11.9199 4.27759 11.9199ZM8.39966 11.1611C9.17212 11.1611 9.82837 10.4775 9.82837 9.58203C9.82837 8.7002 9.17212 8.04395 8.39966 8.04395C7.63403 8.04395 6.96411 8.7207 6.97095 9.5957C6.97095 10.4775 7.63403 11.1611 8.39966 11.1611ZM4.28442 11.25C4.95435 11.25 5.52856 10.6484 5.52856 9.8623C5.52856 9.09668 4.95435 8.5293 4.28442 8.5293C3.6145 8.5293 3.03345 9.11035 3.03345 9.86914C3.03345 10.6484 3.6145 11.25 4.28442 11.25Z" fill="white" fill-opacity="0.6"/>
</svg>
