<svg width="14" height="14" viewBox="0 0 14 14" fill="none" xmlns="http://www.w3.org/2000/svg">
<path d="M6.77954 13.9551C10.4026 13.9551 13.4036 10.9541 13.4036 7.33105C13.4036 3.70801 10.3958 0.707031 6.77271 0.707031C3.15649 0.707031 0.155518 3.70801 0.155518 7.33105C0.155518 10.9541 3.15649 13.9551 6.77954 13.9551ZM5.0022 6.05957C4.98169 5.81348 4.86548 5.58789 4.69458 5.42383C5.26196 4.00195 6.15747 2.70996 7.31958 1.66406C7.40161 1.6709 7.49048 1.68457 7.57251 1.69824C6.74536 3.11328 6.24634 4.69922 6.11646 6.34668C5.74048 6.27832 5.3645 6.18262 5.0022 6.05957ZM2.0354 4.21387C2.94458 2.83984 4.44165 1.86914 6.1438 1.6709C5.18677 2.68262 4.44165 3.8584 3.93579 5.13672C3.73755 5.14355 3.55981 5.20508 3.40942 5.30762C2.9104 5 2.45239 4.63086 2.0354 4.21387ZM8.79614 4.27539C8.78931 3.55078 8.88501 2.82617 9.09692 2.14258C10.3411 2.70996 11.3596 3.71484 11.9407 4.95215C11.2776 5.45801 10.5325 5.84082 9.74634 6.09375C9.56177 5.86133 9.27466 5.7041 8.96021 5.69727C8.85767 5.23926 8.80298 4.76074 8.79614 4.27539ZM7.98267 4.28223C7.9895 4.87695 8.0647 5.45801 8.19458 6.02539C8.08521 6.1416 8.00317 6.27832 7.96216 6.43555C7.7981 6.44922 7.63403 6.45605 7.46997 6.45605C7.2854 6.45605 7.10767 6.44922 6.92993 6.44238C7.03931 4.91797 7.49048 3.46191 8.24243 2.16309C8.0647 2.84668 7.97583 3.55078 7.98267 4.28223ZM1.09204 7.33105C1.09204 6.49023 1.27661 5.69043 1.61157 4.96582C2.02856 5.35547 2.47974 5.7041 2.96509 6.00488C2.95825 6.05273 2.95142 6.10742 2.95142 6.16211C2.95142 6.51074 3.12231 6.81836 3.38892 7.00293C3.25903 7.66602 3.18384 8.34277 3.18384 9.0332C2.44556 8.6709 1.74829 8.21973 1.09888 7.67285C1.09204 7.56348 1.09204 7.44727 1.09204 7.33105ZM12.4739 7.33105C12.4739 7.87109 12.3918 8.4043 12.2483 8.90332C11.8723 9.10156 11.4895 9.27246 11.0999 9.42285C10.4915 8.8623 9.9856 8.20605 9.60278 7.48145C9.77368 7.33105 9.89673 7.12598 9.93774 6.89355C10.7581 6.63379 11.5374 6.25098 12.2483 5.75195C12.3918 6.25098 12.4739 6.78418 12.4739 7.33105ZM6.08911 7.17383C6.08911 8.00781 6.18481 8.82812 6.36255 9.62109C6.26001 9.70996 6.16431 9.81934 6.10278 9.94238C5.38501 9.83301 4.68091 9.64844 3.99731 9.38867C3.97681 8.63672 4.03833 7.8916 4.18188 7.17383C4.40747 7.13281 4.61255 7.00977 4.7561 6.83887C5.18677 6.98242 5.6311 7.0918 6.08911 7.16016V7.17383ZM7.46997 7.26953C7.67505 7.26953 7.87329 7.2627 8.07153 7.24902C8.2356 7.50195 8.5022 7.68652 8.81665 7.7207C9.17896 8.45215 9.65747 9.12207 10.2317 9.70312C9.48657 9.9082 8.72778 10.0244 7.96899 10.0518C7.83228 9.70996 7.52466 9.45703 7.15552 9.40918C6.99146 8.70508 6.90942 7.9873 6.90259 7.25586C7.08716 7.2627 7.27856 7.26953 7.46997 7.26953ZM1.30396 8.86914C1.90552 9.29297 2.54126 9.65527 3.20435 9.94238C3.23853 10.626 3.34106 11.3096 3.5188 11.9727C2.46606 11.2275 1.66626 10.1338 1.30396 8.86914ZM6.77954 13.0254C6.00024 13.0254 5.24829 12.8613 4.5647 12.5605C4.28442 11.8223 4.11353 11.0566 4.04517 10.2705C4.69458 10.4961 5.35767 10.6602 6.03442 10.7559C6.17114 11.1455 6.53345 11.4326 6.96411 11.4531C7.1897 11.9658 7.44946 12.4648 7.75024 12.9365C7.43579 12.9912 7.10767 13.0254 6.77954 13.0254ZM7.72974 11.1592C7.8186 11.0771 7.88696 10.9746 7.94165 10.8652C8.95337 10.8311 9.95825 10.6602 10.9358 10.3457C11.0793 10.4551 11.2229 10.5645 11.3733 10.667C10.6829 11.6104 9.70532 12.3418 8.57739 12.7246C8.24927 12.2256 7.96216 11.7061 7.72974 11.1592Z" fill="white" fill-opacity="0.6"/>
</svg>
